<?xml version="1.0" encoding="UTF-8"?>
<svg id="Layer_1" data-name="Layer 1" xmlns="http://www.w3.org/2000/svg" viewBox="0 0 400.000009739651432 127.925418513140357">
  <defs>
    <style>
      .cls-1, .cls-2, .cls-3 {
        fill: #000;
      }

      .cls-1, .cls-4 {
        stroke-width: 0px;
      }

      .cls-5 {
        stroke-width: 8px;
      }

      .cls-5, .cls-2, .cls-6 {
        stroke: #fff;
      }

      .cls-5, .cls-2, .cls-6, .cls-7 {
        stroke-miterlimit: 10;
      }

      .cls-5, .cls-6, .cls-7 {
        fill: none;
      }

      .cls-7 {
        stroke: #000;
        stroke-width: 6px;
      }

      .cls-4 {
        fill: #fff;
      }

      .cls-3 {
        font-family: OfficeCodePro-Regular, 'Office Code Pro';
        font-size: 24px;
      }
    </style>
  </defs>
  <g id="Underlay">
    <rect class="cls-1" x="32.000000000015731" y="61.919921875" width="7.999999999968537" height="12" rx="3.999995999989991" ry="3.999995999989991"/>
    <rect class="cls-1" x="320.000000000015689" y="61.919921875" width="7.999999999968622" height="12" rx="3.999995999990005" ry="3.999995999990005"/>
    <path class="cls-1" d="M107.999991999999992,21.919921875h.000008000148028c2.207660098139399,0,4.000000000296055,1.792339902156659,4.000000000296055,4.000000000296058v1.999999999703942h-8.000000000444089v-2.000008000000001c0-2.207655682655805,1.792336317344208-3.999991999999999,3.999992000000006-3.999991999999999Z"/>
    <path class="cls-1" d="M323.999991999999111,21.919921875h.000007998964691c2.207660096832171,0,3.999999997927546,1.792339901095371,3.999999997927546,3.999999997927564v2.000000002072436h-7.999999996891347v-2.000008000000889c0-2.207655682655314,1.792336317343825-3.999991999999111,3.999991999999111-3.999991999999111Z"/>
    <path class="cls-1" d="M176.000000000386763,27.919921875000007h7.999999999262741v2.000000000822435c0,2.207660097686439-1.792339901788921,3.999999999475353-3.999999999475364,3.999999999475353h-.000007999754189c-2.207655682674101,0-3.999992000033188-1.792336317359066-3.999992000033188-3.999992000033178v-2.000008000264611h0Z"/>
    <path class="cls-1" d="M248.000000000039563,27.919921875h7.999999988479203v2.000000007564591c0,2.207660093746558-1.792339898590228,3.999999992336786-3.999999992336797,3.999999992336786h-.000007997385154c-2.207655681969925,0-3.999991998757253-1.792336316787342-3.999991998757253-3.999991998757253v-2.000008001144124h0Z"/>
    <path class="cls-1" d="M35.999991999999999,117.919921875h.000008000458472c2.207660098482073,0,4.000000000916941,1.792339902434861,4.000000000916941,4.000000000916941v1.999999999083059h-8.000000001375412v-2.000008000000008c0-2.207655682655798,1.792336317344194-3.999991999999992,3.999991999999999-3.999991999999992Z"/>
  </g>
  <g id="Letters">
    <g id="T">
      <g>
        <g>
          <path class="cls-5" d="M388,67.919921875h-13.657440185546875c-.455535888671875.011444091796875-.90960693359375-.036270141601562-1.36444091796875-.051605224609375-.447357177734375-.081817626953125-.906463623046875-.106185913085938-1.3428955078125-.241409301757812-1.77740478515625-.415252685546875-3.405609130859375-1.363006591796875-4.706298828125-2.635910034179688-1.27288818359375-1.300689697265625-2.22064208984375-2.92889404296875-2.63592529296875-4.706298828125-.13519287109375-.436431884765625-.159576416015625-.895538330078125-.24139404296875-1.342880249023438-.01531982421875-.454864501953125-.06304931640625-.908905029296875-.051605224609375-1.36444091796875v-13.657455444335938"/>
          <path class="cls-7" d="M388,67.919921875h-13.657440185546875c-.455535888671875.011444091796875-.90960693359375-.036270141601562-1.36444091796875-.051605224609375-.447357177734375-.081817626953125-.906463623046875-.106185913085938-1.3428955078125-.241409301757812-1.77740478515625-.415252685546875-3.405609130859375-1.363006591796875-4.706298828125-2.635910034179688-1.27288818359375-1.300689697265625-2.22064208984375-2.92889404296875-2.63592529296875-4.706298828125-.13519287109375-.436431884765625-.159576416015625-.895538330078125-.24139404296875-1.342880249023438-.01531982421875-.454864501953125-.06304931640625-.908905029296875-.051605224609375-1.36444091796875v-13.657455444335938"/>
        </g>
        <path class="cls-6" d="M377.07403564453125,71.419921875c-.181121826171875,0-.35479736328125-.105361938476562-.48284912109375-.292892456054688l-1.707183837890625-2.5c-.266693115234375-.390518188476562-.266693115234375-1.023696899414062,0-1.414215087890625l1.707183837890625-2.5c.1280517578125-.187530517578125.301727294921875-.292892456054688.48284912109375-.292892456054688"/>
        <path class="cls-6" d="M360.5,54.84588623046875c0-.181106567382812.1053466796875-.35479736328125.29290771484375-.482864379882812l2.5-1.707183837890625c.3905029296875-.266677856445312,1.023681640625-.266677856445312,1.4141845703125,0l2.5,1.707183837890625c.18756103515625.128067016601562.29290771484375.3017578125.29290771484375.482864379882812"/>
      </g>
      <g>
        <path class="cls-5" d="M364,27.919921875v74.629806518554688c-.012420654296875,1.243072509765625.026153564453125,2.489395141601562.150604248046875,3.725296020507812.101318359375.613265991210938.170928955078125,1.233016967773438.298248291015625,1.840972900390625l.470062255859375,1.805267333984375c.74090576171875,2.376708984375,1.9490966796875,4.602371215820312,3.511077880859375,6.537246704101562,3.115509033203125,3.883956909179688,7.726959228515625,6.53106689453125,12.656707763671875,7.225616455078125,2.46533203125.352737426757812,4.96649169921875.202255249023438,7.4503173828125.235794067382812h7.462982177734375"/>
        <path class="cls-7" d="M364,27.919921875v74.629806518554688c-.012420654296875,1.243072509765625.026153564453125,2.489395141601562.150604248046875,3.725296020507812.101318359375.613265991210938.170928955078125,1.233016967773438.298248291015625,1.840972900390625l.470062255859375,1.805267333984375c.74090576171875,2.376708984375,1.9490966796875,4.602371215820312,3.511077880859375,6.537246704101562,3.115509033203125,3.883956909179688,7.726959228515625,6.53106689453125,12.656707763671875,7.225616455078125,2.46533203125.352737426757812,4.96649169921875.202255249023438,7.4503173828125.235794067382812h7.462982177734375"/>
      </g>
      <g>
        <circle class="cls-1" cx="395.999979222073307" cy="123.920025764626189" r="3.5"/>
        <path class="cls-4" d="M396.000009739651432,120.919918953102751c1.654205322265625,0,3,1.345794677734375,3,3s-1.345794677734375,3-3,3-3-1.345794677734375-3-3,1.345794677734375-3,3-3M396.000009739651432,119.919918953102751c-2.209136962890625,0-4,1.790863037109375-4,4s1.790863037109375,4,4,4,4-1.790863037109375,4-4-1.790863037109375-4-4-4h0Z"/>
      </g>
      <g>
        <circle class="cls-1" cx="388.000124667552882" cy="67.919901097075126" r="3.5"/>
        <path class="cls-4" d="M388.000002597240382,64.919916355864189c1.654205322265625,0,3,1.345794677734375,3,3s-1.345794677734375,3-3,3-3-1.345794677734375-3-3,1.345794677734375-3,3-3M388.000002597240382,63.919916355864189c-2.209136962890625,0-4,1.790863037109375-4,4s1.790863037109375,4,4,4,4-1.790863037109375,4-4-1.790863037109375-4-4-4h0Z"/>
      </g>
      <g>
        <circle class="cls-1" cx="364.000270113032457" cy="27.920056931514409" r="3.5"/>
        <path class="cls-4" d="M363.999995454829332,24.919919602412847c1.654205322265625,0,3,1.345794677734375,3,3s-1.345794677734375,3-3,3-3-1.345794677734375-3-3,1.345794677734375-3,3-3M363.999995454829332,23.919919602412847c-2.209136962890625,0-4,1.790863037109375-4,4s1.790863037109375,4,4,4,4-1.790863037109375,4-4-1.790863037109375-4-4-4h0Z"/>
      </g>
      <text class="cls-3" transform="translate(4 19.920024871826172)"><tspan x="0" y="0">Studio</tspan></text>
    </g>
    <g id="R">
      <g>
        <path class="cls-5" d="M292,123.919921875v-27.782241821289062c.024078369140625-1.851333618164062-.058441162109375-3.7061767578125.071380615234375-5.554397583007812.296051025390625-3.693008422851562,1.644805908203125-7.293350219726562,3.849273681640625-10.272445678710938,1.095672607421875-1.499710083007812,2.46466064453125-2.762115478515625,3.765716552734375-4.0772705078125,1.3272705078125-1.290069580078125,2.570526123046875-2.672866821289062,4.004547119140625-3.848068237304688,2.87359619140625-2.341064453125,6.415374755859375-3.84222412109375,10.090362548828125-4.302337646484375,1.8394775390625-.25054931640625,3.699493408203125-.13616943359375,5.54937744140625-.163238525390625h16.669342041015625"/>
        <path class="cls-7" d="M292,123.919921875v-27.782241821289062c.024078369140625-1.851333618164062-.058441162109375-3.7061767578125.071380615234375-5.554397583007812.296051025390625-3.693008422851562,1.644805908203125-7.293350219726562,3.849273681640625-10.272445678710938,1.095672607421875-1.499710083007812,2.46466064453125-2.762115478515625,3.765716552734375-4.0772705078125,1.3272705078125-1.290069580078125,2.570526123046875-2.672866821289062,4.004547119140625-3.848068237304688,2.87359619140625-2.341064453125,6.415374755859375-3.84222412109375,10.090362548828125-4.302337646484375,1.8394775390625-.25054931640625,3.699493408203125-.13616943359375,5.54937744140625-.163238525390625h16.669342041015625"/>
      </g>
      <g>
        <path class="cls-5" d="M336,67.919921875c5.2447509765625-.017578125,10.447052001953125,2.135482788085938,14.14215087890625,5.857864379882812,3.722381591796875,3.695098876953125,5.87542724609375,8.897369384765625,5.85784912109375,14.142135620117188"/>
        <path class="cls-7" d="M336,67.919921875c5.2447509765625-.017578125,10.447052001953125,2.135482788085938,14.14215087890625,5.857864379882812,3.722381591796875,3.695098876953125,5.87542724609375,8.897369384765625,5.85784912109375,14.142135620117188"/>
      </g>
      <g>
        <g>
          <path class="cls-5" d="M356,67.919921875v-13.518585205078125l-.014007568359375-6.758941650390625c-.005523681640625-2.256378173828125-.464630126953125-4.497421264648438-1.2294921875-6.610671997070312-.775115966796875-2.113433837890625-1.906036376953125-4.095809936523438-3.331512451171875-5.842437744140625-1.445281982421875-1.730377197265625-3.178924560546875-3.214859008789062-5.106109619140625-4.378158569335938-1.927215576171875-1.162918090820312-4.047271728515625-2.007369995117188-6.25299072265625-2.475830078125-2.215057373046875-.45819091796875-4.483062744140625-.415939331054688-6.7325439453125-.415374755859375"/>
          <path class="cls-7" d="M356,67.919921875v-13.518585205078125l-.014007568359375-6.758941650390625c-.005523681640625-2.256378173828125-.464630126953125-4.497421264648438-1.2294921875-6.610671997070312-.775115966796875-2.113433837890625-1.906036376953125-4.095809936523438-3.331512451171875-5.842437744140625-1.445281982421875-1.730377197265625-3.178924560546875-3.214859008789062-5.106109619140625-4.378158569335938-1.927215576171875-1.162918090820312-4.047271728515625-2.007369995117188-6.25299072265625-2.475830078125-2.215057373046875-.45819091796875-4.483062744140625-.415939331054688-6.7325439453125-.415374755859375"/>
          <path class="cls-6" d="M351.47113037109375,42.238525390625c-.063323974609375-.173110961914062-.0247802734375-.376678466796875.104278564453125-.571868896484375.574493408203125-.866943359375,1.010345458984375-1.7716064453125,1.466827392578125-2.7808837890625.20404052734375-.467559814453125.75140380859375-.78656005859375,1.248931884765625-.6634521484375,1.038848876953125.27154541015625,2.1790771484375.59613037109375,3.235748291015625,1.0523681640625.237945556640625.102401733398438.42425537109375.302474975585938.51495361328125.550216674804688"/>
        </g>
        <g>
          <path class="cls-5" d="M333.333343505859375,27.919921875h-20.27789306640625c-2.246490478515625-.002632141113281-4.525115966796875.126113891601562-6.681793212890625.816604614257812-4.3118896484375,1.28558349609375-8.202880859375,4.023239135742188-10.764434814453125,7.742385864257812-2.550537109375,3.698776245117188-3.911041259765625,8.268539428710938-3.5419921875,12.77264404296875"/>
          <path class="cls-7" d="M333.333343505859375,27.919921875h-20.27789306640625c-2.246490478515625-.002632141113281-4.525115966796875.126113891601562-6.681793212890625.816604614257812-4.3118896484375,1.28558349609375-8.202880859375,4.023239135742188-10.764434814453125,7.742385864257812-2.550537109375,3.698776245117188-3.911041259765625,8.268539428710938-3.5419921875,12.77264404296875"/>
          <path class="cls-6" d="M307.35723876953125,32.095489501953125c-.18084716796875.038482666015625-.3802490234375-.010421752929688-.56097412109375-.135635375976562-.803924560546875-.568618774414062-1.72454833984375-1.187454223632812-2.6717529296875-1.640029907226562-.44561767578125-.218338012695312-.727264404296875-.785812377929688-.578338623046875-1.290542602539062.3109130859375-1.08868408203125.759124755859375-2.081581115722656,1.263275146484375-3.168159484863281.11279296875-.247177124023438.323577880859375-.422782897949219.58062744140625-.483543395996094"/>
        </g>
        <g>
          <path class="cls-5" d="M292.067230224609375,49.251556396484375c.15264892578125,2.245635986328125.67205810546875,4.466583251953125,1.548095703125,6.543869018554688.887451171875,2.073348999023438,2.1488037109375,3.978118896484375,3.6695556640625,5.636184692382812,1.52374267578125,1.657272338867188,3.323028564453125,3.059921264648438,5.3045654296875,4.133514404296875,1.984832763671875,1.071762084960938,4.16448974609375,1.76171875,6.387298583984375,2.102218627929688,2.22906494140625.35418701171875,4.496185302734375.23095703125,6.745361328125.252578735351562h20.27789306640625"/>
          <path class="cls-7" d="M292.067230224609375,49.251556396484375c.15264892578125,2.245635986328125.67205810546875,4.466583251953125,1.548095703125,6.543869018554688.887451171875,2.073348999023438,2.1488037109375,3.978118896484375,3.6695556640625,5.636184692382812,1.52374267578125,1.657272338867188,3.323028564453125,3.059921264648438,5.3045654296875,4.133514404296875,1.984832763671875,1.071762084960938,4.16448974609375,1.76171875,6.387298583984375,2.102218627929688,2.22906494140625.35418701171875,4.496185302734375.23095703125,6.745361328125.252578735351562h20.27789306640625"/>
          <path class="cls-6" d="M309.50250244140625,64.207061767578125c.182464599609375.027847290039062.34246826171875.159652709960938.451446533203125.36669921875.482666015625.92791748046875,1.067413330078125,1.736770629882812,1.730438232421875,2.622634887695312.310943603515625.406967163085938.32525634765625,1.040328979492188-.022857666015625,1.414031982421875-.739837646484375.779708862304688-1.572998046875,1.63134765625-2.480804443359375,2.330780029296875-.20428466796875.15924072265625-.469146728515625.2261962890625-.729736328125.186431884765625"/>
        </g>
      </g>
      <g>
        <line class="cls-5" x1="356" y1="67.919921875" x2="356" y2="123.919921875"/>
        <line class="cls-7" x1="356" y1="67.919921875" x2="356" y2="123.919921875"/>
      </g>
      <g>
        <circle class="cls-1" cx="292.000311668884024" cy="123.919724484707331" r="3.5"/>
        <path class="cls-4" d="M292.000006493102774,120.919922848965143c1.654205322265625,0,3,1.345794677734375,3,3s-1.345794677734375,3-3,3-3-1.345794677734375-3-3,1.345794677734375-3,3-3M292.000006493102774,119.919922848965143c-2.209136962890625,0-4,1.790863037109375-4,4s1.790863037109375,4,4,4,4-1.790863037109375,4-4-1.790863037109375-4-4-4h0Z"/>
      </g>
      <g>
        <circle class="cls-1" cx="355.999522107715165" cy="123.919869930187815" r="3.5"/>
        <path class="cls-4" d="M356.000010388965165,120.919915706555003c1.654205322265625,0,3,1.345794677734375,3,3s-1.345794677734375,3-3,3-3-1.345794677734375-3-3,1.345794677734375-3,3-3M356.000010388965165,119.919915706555003c-2.209136962890625,0-4,1.790863037109375-4,4,0,2.209152221679688,1.790863037109375,4,4,4s4-1.790847778320312,4-4c0-2.209136962890625-1.790863037109375-4-4-4h0Z"/>
      </g>
    </g>
    <g id="O2">
      <g>
        <g>
          <path class="cls-5" d="M284,103.919921875v-55.787261962890625c-.016082763671875-.743423461914062-.069091796875-1.485916137695312-.101806640625-2.228927612304688-.114959716796875-.734161376953125-.203826904296875-1.47467041015625-.352813720703125-2.202346801757812-.2041015625-.71453857421875-.328277587890625-1.453903198242188-.59796142578125-2.148056030273438-.954010009765625-2.81768798828125-2.542510986328125-5.414016723632812-4.606109619140625-7.556381225585938"/>
          <path class="cls-7" d="M284,103.919921875v-55.787261962890625c-.016082763671875-.743423461914062-.069091796875-1.485916137695312-.101806640625-2.228927612304688-.114959716796875-.734161376953125-.203826904296875-1.47467041015625-.352813720703125-2.202346801757812-.2041015625-.71453857421875-.328277587890625-1.453903198242188-.59796142578125-2.148056030273438-.954010009765625-2.81768798828125-2.542510986328125-5.414016723632812-4.606109619140625-7.556381225585938"/>
          <path class="cls-6" d="M280.5,68.216079711914062c0-.295928955078125.1053466796875-.5797119140625.29290771484375-.788955688476562l2.5-2.78936767578125c.3905029296875-.43572998046875,1.023681640625-.43572998046875,1.4141845703125,0l2.5,2.78936767578125c.18756103515625.209243774414062.29290771484375.493026733398438.29290771484375.788955688476562"/>
        </g>
        <g>
          <path class="cls-5" d="M278.34130859375,33.9969482421875c-2.051788330078125-2.159255981445312-4.636505126953125-3.784744262695312-7.418487548828125-4.82086181640625-.35028076171875-.12457275390625-.696258544921875-.262939453125-1.050048828125-.376190185546875l-1.080596923828125-.277847290039062c-.713958740234375-.216781616210938-1.45574951171875-.297225952148438-2.190185546875-.413848876953125-1.474090576171875-.196220397949219-2.96807861328125-.1923828125-4.45391845703125-.188278198242188h-17.8519287109375c-2.964569091796875.0413818359375-5.97943115234375-.196495056152344-8.882293701171875.549148559570312-2.894775390625.683914184570312-5.62847900390625,2.023712158203125-7.952423095703125,3.880828857421875-4.6593017578125,3.72198486328125-7.472686767578125,9.60675048828125-7.46142578125,15.570022583007812"/>
          <path class="cls-7" d="M278.34130859375,33.9969482421875c-2.051788330078125-2.159255981445312-4.636505126953125-3.784744262695312-7.418487548828125-4.82086181640625-.35028076171875-.12457275390625-.696258544921875-.262939453125-1.050048828125-.376190185546875l-1.080596923828125-.277847290039062c-.713958740234375-.216781616210938-1.45574951171875-.297225952148438-2.190185546875-.413848876953125-1.474090576171875-.196220397949219-2.96807861328125-.1923828125-4.45391845703125-.188278198242188h-17.8519287109375c-2.964569091796875.0413818359375-5.97943115234375-.196495056152344-8.882293701171875.549148559570312-2.894775390625.683914184570312-5.62847900390625,2.023712158203125-7.952423095703125,3.880828857421875-4.6593017578125,3.72198486328125-7.472686767578125,9.60675048828125-7.46142578125,15.570022583007812"/>
          <path class="cls-6" d="M244.296142578125,31.419921875c-.2958984375,0-.5797119140625-.105361938476562-.7889404296875-.292892456054688l-2.78936767578125-2.5c-.43572998046875-.390518188476562-.43572998046875-1.023689270019531,0-1.414215087890625l2.78936767578125-2.5c.209228515625-.187538146972656.4930419921875-.292892456054688.7889404296875-.292892456054688"/>
        </g>
        <g>
          <path class="cls-5" d="M220,47.919921875v55.787261962890625c.016082763671875.743423461914062.069091796875,1.485916137695312.101806640625,2.228927612304688.114959716796875.734161376953125.203826904296875,1.47467041015625.352813720703125,2.202346801757812.2041015625.71453857421875.328277587890625,1.453903198242188.59796142578125,2.148056030273438.954010009765625,2.81768798828125,2.542510986328125,5.414016723632812,4.606109619140625,7.556381225585938"/>
          <path class="cls-7" d="M220,47.919921875v55.787261962890625c.016082763671875.743423461914062.069091796875,1.485916137695312.101806640625,2.228927612304688.114959716796875.734161376953125.203826904296875,1.47467041015625.352813720703125,2.202346801757812.2041015625.71453857421875.328277587890625,1.453903198242188.59796142578125,2.148056030273438.954010009765625,2.81768798828125,2.542510986328125,5.414016723632812,4.606109619140625,7.556381225585938"/>
          <path class="cls-6" d="M223.5,83.623764038085938c0,.295928955078125-.1053466796875.5797119140625-.29290771484375.788955688476562l-2.5,2.78936767578125c-.3905029296875.43572998046875-1.023681640625.43572998046875-1.4141845703125,0l-2.5-2.78936767578125c-.18756103515625-.209243774414062-.29290771484375-.493026733398438-.29290771484375-.788955688476562"/>
        </g>
        <g>
          <path class="cls-5" d="M225.65869140625,117.8428955078125c2.051788330078125,2.159255981445312,4.636505126953125,3.784744262695312,7.418487548828125,4.82086181640625.35028076171875.12457275390625.696258544921875.262939453125,1.050048828125.376190185546875l1.080596923828125.277847290039062c.713958740234375.216781616210938,1.45574951171875.297225952148438,2.190185546875.413848876953125,1.474090576171875.196212768554688,2.96807861328125.1923828125,4.45391845703125.188278198242188h17.8519287109375c2.964569091796875-.0413818359375,5.97943115234375.196487426757812,8.882293701171875-.549148559570312,2.894775390625-.683914184570312,5.62847900390625-2.023712158203125,7.952423095703125-3.880828857421875,4.6593017578125-3.72198486328125,7.472686767578125-9.60675048828125,7.46142578125-15.570022583007812"/>
          <path class="cls-7" d="M225.65869140625,117.8428955078125c2.051788330078125,2.159255981445312,4.636505126953125,3.784744262695312,7.418487548828125,4.82086181640625.35028076171875.12457275390625.696258544921875.262939453125,1.050048828125.376190185546875l1.080596923828125.277847290039062c.713958740234375.216781616210938,1.45574951171875.297225952148438,2.190185546875.413848876953125,1.474090576171875.196212768554688,2.96807861328125.1923828125,4.45391845703125.188278198242188h17.8519287109375c2.964569091796875-.0413818359375,5.97943115234375.196487426757812,8.882293701171875-.549148559570312,2.894775390625-.683914184570312,5.62847900390625-2.023712158203125,7.952423095703125-3.880828857421875,4.6593017578125-3.72198486328125,7.472686767578125-9.60675048828125,7.46142578125-15.570022583007812"/>
          <path class="cls-6" d="M259.703857421875,120.419921875c.2958984375,0,.5797119140625.105361938476562.7889404296875.292892456054688l2.78936767578125,2.5c.43572998046875.390518188476562.43572998046875,1.023696899414062,0,1.414215087890625l-2.78936767578125,2.5c-.209228515625.187530517578125-.4930419921875.292892456054688-.7889404296875.292892456054688"/>
        </g>
      </g>
      <g>
        <circle class="cls-1" cx="251.999916888296866" cy="123.920129654256016" r="3.5"/>
        <path class="cls-4" d="M252.000008441031241,120.919916031209141c1.654205322265625,0,3,1.345794677734375,3,3s-1.345794677734375,3-3,3-3-1.345794677734375-3-3,1.345794677734375-3,3-3M252.000008441031241,119.919916031209141c-2.209136962890625,0-4,1.790863037109375-4,4,0,2.209152221679688,1.790863037109375,4,4,4s4-1.790847778320312,4-4c0-2.209136962890625-1.790863037109375-4-4-4h0Z"/>
      </g>
    </g>
    <g id="O1">
      <g>
        <g>
          <path class="cls-5" d="M148,103.919921875v-55.787261962890625c.016067504882812-.743423461914062.069076538085938-1.485916137695312.101806640625-2.228927612304688.114944458007812-.734161376953125.203842163085938-1.47467041015625.352813720703125-2.202346801757812.204086303710938-.71453857421875.328277587890625-1.453903198242188.597976684570312-2.148056030273438.9539794921875-2.81768798828125,2.542495727539062-5.414016723632812,4.6060791015625-7.556381225585938"/>
          <path class="cls-7" d="M148,103.919921875v-55.787261962890625c.016067504882812-.743423461914062.069076538085938-1.485916137695312.101806640625-2.228927612304688.114944458007812-.734161376953125.203842163085938-1.47467041015625.352813720703125-2.202346801757812.204086303710938-.71453857421875.328277587890625-1.453903198242188.597976684570312-2.148056030273438.9539794921875-2.81768798828125,2.542495727539062-5.414016723632812,4.6060791015625-7.556381225585938"/>
          <path class="cls-6" d="M144.5,68.216079711914062c0-.295928955078125.105361938476562-.5797119140625.292892456054688-.788955688476562l2.5-2.78936767578125c.390518188476562-.43572998046875,1.023696899414062-.43572998046875,1.414215087890625,0l2.5,2.78936767578125c.187530517578125.209243774414062.292892456054688.493026733398438.292892456054688.788955688476562"/>
        </g>
        <g>
          <path class="cls-5" d="M153.658676147460938,33.9969482421875c2.051788330078125-2.159255981445312,4.63653564453125-3.784744262695312,7.41851806640625-4.82086181640625.350265502929688-.12457275390625.696243286132812-.262939453125,1.050033569335938-.376190185546875l1.080596923828125-.277847290039062c.713943481445312-.216781616210938,1.45574951171875-.297225952148438,2.190170288085938-.413848876953125,1.474105834960938-.196220397949219,2.968093872070312-.1923828125,4.453933715820312-.188278198242188h17.851913452148438c2.964584350585938.0413818359375,5.97943115234375-.196495056152344,8.882308959960938.549148559570312,2.894775390625.683914184570312,5.62847900390625,2.023712158203125,7.952423095703125,3.880828857421875,4.6593017578125,3.72198486328125,7.472686767578125,9.60675048828125,7.46142578125,15.570022583007812"/>
          <path class="cls-7" d="M153.658676147460938,33.9969482421875c2.051788330078125-2.159255981445312,4.63653564453125-3.784744262695312,7.41851806640625-4.82086181640625.350265502929688-.12457275390625.696243286132812-.262939453125,1.050033569335938-.376190185546875l1.080596923828125-.277847290039062c.713943481445312-.216781616210938,1.45574951171875-.297225952148438,2.190170288085938-.413848876953125,1.474105834960938-.196220397949219,2.968093872070312-.1923828125,4.453933715820312-.188278198242188h17.851913452148438c2.964584350585938.0413818359375,5.97943115234375-.196495056152344,8.882308959960938.549148559570312,2.894775390625.683914184570312,5.62847900390625,2.023712158203125,7.952423095703125,3.880828857421875,4.6593017578125,3.72198486328125,7.472686767578125,9.60675048828125,7.46142578125,15.570022583007812"/>
          <path class="cls-6" d="M187.703842163085938,24.419921875c.295928955078125,0,.5797119140625.105354309082031.788955688476562.292892456054688l2.78936767578125,2.5c.43572998046875.390525817871094.43572998046875,1.023696899414062,0,1.414215087890625l-2.78936767578125,2.5c-.209243774414062.187530517578125-.493026733398438.292892456054688-.788955688476562.292892456054688"/>
        </g>
        <g>
          <path class="cls-5" d="M212,47.919921875v55.787261962890625c-.016082763671875.743423461914062-.069091796875,1.485916137695312-.101806640625,2.228927612304688-.114959716796875.734161376953125-.203826904296875,1.47467041015625-.352813720703125,2.202346801757812-.2041015625.71453857421875-.328277587890625,1.453903198242188-.59796142578125,2.148056030273438-.954010009765625,2.81768798828125-2.542510986328125,5.414016723632812-4.606109619140625,7.556381225585938"/>
          <path class="cls-7" d="M212,47.919921875v55.787261962890625c-.016082763671875.743423461914062-.069091796875,1.485916137695312-.101806640625,2.228927612304688-.114959716796875.734161376953125-.203826904296875,1.47467041015625-.352813720703125,2.202346801757812-.2041015625.71453857421875-.328277587890625,1.453903198242188-.59796142578125,2.148056030273438-.954010009765625,2.81768798828125-2.542510986328125,5.414016723632812-4.606109619140625,7.556381225585938"/>
          <path class="cls-6" d="M215.5,83.623764038085938c0,.295928955078125-.1053466796875.5797119140625-.29290771484375.788955688476562l-2.5,2.78936767578125c-.3905029296875.43572998046875-1.023681640625.43572998046875-1.4141845703125,0l-2.5-2.78936767578125c-.18756103515625-.209243774414062-.29290771484375-.493026733398438-.29290771484375-.788955688476562"/>
        </g>
        <g>
          <path class="cls-5" d="M206.34130859375,117.8428955078125c-2.051788330078125,2.159255981445312-4.636505126953125,3.784744262695312-7.418487548828125,4.82086181640625-.35028076171875.12457275390625-.696258544921875.262939453125-1.050048828125.376190185546875l-1.080596923828125.277847290039062c-.713958740234375.216781616210938-1.45574951171875.297225952148438-2.190170288085938.413848876953125-1.474105834960938.196212768554688-2.968093872070312.1923828125-4.453933715820312.188278198242188h-17.851913452148438c-2.964584350585938-.0413818359375-5.97943115234375.196487426757812-8.882308959960938-.549148559570312-2.894790649414062-.683914184570312-5.62847900390625-2.023712158203125-7.952438354492188-3.880828857421875-4.659286499023438-3.72198486328125-7.472686767578125-9.60675048828125-7.461410522460938-15.570022583007812"/>
          <path class="cls-7" d="M206.34130859375,117.8428955078125c-2.051788330078125,2.159255981445312-4.636505126953125,3.784744262695312-7.418487548828125,4.82086181640625-.35028076171875.12457275390625-.696258544921875.262939453125-1.050048828125.376190185546875l-1.080596923828125.277847290039062c-.713958740234375.216781616210938-1.45574951171875.297225952148438-2.190170288085938.413848876953125-1.474105834960938.196212768554688-2.968093872070312.1923828125-4.453933715820312.188278198242188h-17.851913452148438c-2.964584350585938-.0413818359375-5.97943115234375.196487426757812-8.882308959960938-.549148559570312-2.894790649414062-.683914184570312-5.62847900390625-2.023712158203125-7.952438354492188-3.880828857421875-4.659286499023438-3.72198486328125-7.472686767578125-9.60675048828125-7.461410522460938-15.570022583007812"/>
          <path class="cls-6" d="M172.296157836914062,127.419921875c-.295928955078125,0-.5797119140625-.105361938476562-.788955688476562-.292892456054688l-2.78936767578125-2.5c-.43572998046875-.390518188476562-.43572998046875-1.023696899414062,0-1.414215087890625l2.78936767578125-2.5c.209243774414062-.187530517578125.493026733398438-.292892456054688.788955688476562-.292892456054688"/>
        </g>
      </g>
      <g>
        <circle class="cls-1" cx="180.000062333776441" cy="123.91989070811178" r="3.5"/>
        <path class="cls-4" d="M180.000001298620191,120.919921225689905c1.654205322265625,0,3,1.345794677734375,3,3s-1.345794677734375,3-3,3-3-1.345794677734375-3-3,1.345794677734375-3,3-3M180.000001298620191,119.919921225689905c-2.209136962890625,0-4,1.790863037109375-4,4s1.790863037109375,4,4,4,4-1.790863037109375,4-4-1.790863037109375-4-4-4h0Z"/>
      </g>
    </g>
    <g id="P">
      <g>
        <g>
          <path class="cls-5" d="M96,67.919921875c-5.244766235351562-.017578125-10.447036743164062,2.135482788085938-14.142135620117188,5.857864379882812-3.722381591796875,3.695098876953125-5.875442504882812,8.897369384765625-5.857864379882812,14.142135620117188"/>
          <path class="cls-7" d="M96,67.919921875c-5.244766235351562-.017578125-10.447036743164062,2.135482788085938-14.142135620117188,5.857864379882812-3.722381591796875,3.695098876953125-5.875442504882812,8.897369384765625-5.857864379882812,14.142135620117188"/>
        </g>
        <path class="cls-6" d="M89.687347412109375,72.676498413085938c-.1029052734375.031173706054688-.234283447265625-.016250610351562-.378707885742188-.154464721679688-.640609741210938-.612899780273438-1.329071044921875-1.207183837890625-2.063613891601562-1.778457641601562-.343826293945312-.267929077148438-.64471435546875-.825180053710938-.643234252929688-1.25946044921875.002334594726562-.926223754882812.050750732421875-1.87548828125.146987915039062-2.843353271484375.021682739257812-.217437744140625.111709594726562-.381546020507812.257247924804688-.43035888671875"/>
        <path class="cls-6" d="M80.756576538085938,81.607269287109375c-.035903930664062.1009521484375-.168106079101562.157806396484375-.368804931640625.161712646484375-.89154052734375.016830444335938-1.803878784179688.080856323242188-2.73260498046875.193862915039062-.435104370117188.052520751953125-1.04180908203125-.129074096679688-1.345169067382812-.436492919921875-.647598266601562-.655059814453125-1.278839111328125-1.359115600585938-1.889251708984375-2.110382080078125-.137435913085938-.168930053710938-.183837890625-.346511840820312-.130264282226562-.490020751953125"/>
      </g>
      <g>
        <g>
          <path class="cls-5" d="M76,67.919921875v-13.518585205078125l.014007568359375-6.758941650390625c.005538940429688-2.256378173828125.464630126953125-4.497421264648438,1.2294921875-6.610671997070312.775131225585938-2.113433837890625,1.906036376953125-4.095809936523438,3.331497192382812-5.842437744140625,1.4453125-1.730377197265625,3.178939819335938-3.214859008789062,5.106124877929688-4.378158569335938,1.927200317382812-1.162918090820312,4.047256469726562-2.007369995117188,6.25299072265625-2.475830078125,2.215057373046875-.45819091796875,4.483062744140625-.415939331054688,6.732559204101562-.415374755859375"/>
          <path class="cls-7" d="M76,67.919921875v-13.518585205078125l.014007568359375-6.758941650390625c.005538940429688-2.256378173828125.464630126953125-4.497421264648438,1.2294921875-6.610671997070312.775131225585938-2.113433837890625,1.906036376953125-4.095809936523438,3.331497192382812-5.842437744140625,1.4453125-1.730377197265625,3.178939819335938-3.214859008789062,5.106124877929688-4.378158569335938,1.927200317382812-1.162918090820312,4.047256469726562-2.007369995117188,6.25299072265625-2.475830078125,2.215057373046875-.45819091796875,4.483062744140625-.415939331054688,6.732559204101562-.415374755859375"/>
          <path class="cls-6" d="M73.9581298828125,39.824905395507812c.090713500976562-.24774169921875.276992797851562-.44781494140625.51495361328125-.550216674804688,1.056671142578125-.45623779296875,2.1968994140625-.78082275390625,3.235733032226562-1.0523681640625.497543334960938-.12310791015625,1.044906616210938.195892333984375,1.248931884765625.6634521484375.456497192382812,1.00927734375.892349243164062,1.9139404296875,1.46685791015625,2.7808837890625.1290283203125.1951904296875.167587280273438.398757934570312.104248046875.571868896484375"/>
        </g>
        <g>
          <path class="cls-5" d="M98.666671752929688,27.919921875h20.277877807617188c2.246490478515625-.002632141113281,4.525115966796875.126113891601562,6.681793212890625.816604614257812,4.3118896484375,1.28558349609375,8.202865600585938,4.023239135742188,10.764434814453125,7.742385864257812,2.550537109375,3.698776245117188,3.911041259765625,8.268539428710938,3.541976928710938,12.77264404296875"/>
          <path class="cls-7" d="M98.666671752929688,27.919921875h20.277877807617188c2.246490478515625-.002632141113281,4.525115966796875.126113891601562,6.681793212890625.816604614257812,4.3118896484375,1.28558349609375,8.202865600585938,4.023239135742188,10.764434814453125,7.742385864257812,2.550537109375,3.698776245117188,3.911041259765625,8.268539428710938,3.541976928710938,12.77264404296875"/>
          <path class="cls-6" d="M126.609939575195312,25.377578735351562c.257049560546875.060760498046875.467803955078125.236366271972656.58062744140625.483543395996094.504119873046875,1.086578369140625.952346801757812,2.079475402832031,1.263259887695312,3.168159484863281.14892578125.504730224609375-.132736206054688,1.07220458984375-.578338623046875,1.290542602539062-.947189331054688.45257568359375-1.867843627929688,1.0714111328125-2.6717529296875,1.640029907226562-.180740356445312.125213623046875-.380126953125.174118041992188-.56097412109375.135635375976562"/>
        </g>
        <g>
          <path class="cls-5" d="M139.932754516601562,49.251556396484375c-.152633666992188,2.245635986328125-.67205810546875,4.466583251953125-1.548095703125,6.543869018554688-.887435913085938,2.073348999023438-2.148788452148438,3.978118896484375-3.669525146484375,5.636184692382812-1.523757934570312,1.657272338867188-3.323028564453125,3.059921264648438-5.304595947265625,4.133514404296875-1.98480224609375,1.071762084960938-4.164474487304688,1.76171875-6.387283325195312,2.102218627929688-2.229049682617188.35418701171875-4.496185302734375.23095703125-6.745361328125.252578735351562h-20.27789306640625"/>
          <path class="cls-7" d="M139.932754516601562,49.251556396484375c-.152633666992188,2.245635986328125-.67205810546875,4.466583251953125-1.548095703125,6.543869018554688-.887435913085938,2.073348999023438-2.148788452148438,3.978118896484375-3.669525146484375,5.636184692382812-1.523757934570312,1.657272338867188-3.323028564453125,3.059921264648438-5.304595947265625,4.133514404296875-1.98480224609375,1.071762084960938-4.164474487304688,1.76171875-6.387283325195312,2.102218627929688-2.229049682617188.35418701171875-4.496185302734375.23095703125-6.745361328125.252578735351562h-20.27789306640625"/>
          <path class="cls-6" d="M123.54901123046875,71.127639770507812c-.260574340820312.039764404296875-.52545166015625-.027191162109375-.729751586914062-.186431884765625-.907806396484375-.699432373046875-1.740966796875-1.551071166992188-2.48077392578125-2.330780029296875-.348129272460938-.373703002929688-.333831787109375-1.007064819335938-.022872924804688-1.414031982421875.66302490234375-.8858642578125,1.247787475585938-1.694717407226562,1.730422973632812-2.622634887695312.108978271484375-.207046508789062.268997192382812-.338851928710938.451461791992188-.36669921875"/>
        </g>
      </g>
      <g>
        <line class="cls-5" x1="76" y1="123.919921875" x2="76" y2="67.919921875"/>
        <line class="cls-7" x1="76" y1="123.919921875" x2="76" y2="67.919921875"/>
      </g>
      <g>
        <circle class="cls-1" cx="75.999761053855764" cy="123.919797207447118" r="3.5"/>
        <path class="cls-4" d="M75.999997565086232,120.919919277759618c1.654212951660156,0,3,1.345794677734375,3,3s-1.345787048339844,3-3,3-3-1.345794677734375-3-3,1.345787048339844-3,3-3M75.999997565086232,119.919919277759618c-2.209136962890625,0-4,1.790863037109375-4,4s1.790863037109375,4,4,4,4-1.790863037109375,4-4-1.790863037109375-4-4-4h0Z"/>
      </g>
    </g>
    <g id="S">
      <g>
        <path class="cls-5" d="M68,27.919921875H28.370185852050781c-2.635810852050781.04119873046875-5.29937744140625-.154365539550781-7.906097412109375.330810546875-5.211990356445312.90679931640625-9.985588073730469,4.005767822265625-12.965812683105469,8.376541137695312-3.027366638183594,4.346420288085938-4.154392242431641,9.933837890625-3.122779846191406,15.121322631835938.986419677734375,5.197555541992188,4.150230407714844,9.937576293945312,8.577537536621094,12.837799072265625,2.201736450195312,1.460739135742188,4.695838928222656,2.47747802734375,7.291488647460938,2.969207763671875,2.602264404296875.527313232421875,5.26849365234375.32318115234375,7.903549194335938.36431884765625h15.8519287109375c2.634552001953125.041091918945312,5.302558898925781-.16876220703125,7.90185546875.38665771484375,2.592658996582031.51141357421875,5.079818725585938,1.5467529296875,7.271659851074219,3.023757934570312,4.394393920898438,2.94842529296875,7.526702880859375,7.701751708984375,8.473335266113281,12.907302856445312.513275146484375,2.603744506835938.311996459960938,5.269088745117188.3531494140625,7.904388427734375v7.92596435546875c-.039558410644531,2.634414672851562.162445068359375,5.303085327148438-.410743713378906,7.899810791015625-.529678344726562,2.58990478515625-1.589492797851562,5.068313598632812-3.087532043457031,7.244766235351562-2.980224609375,4.370773315429688-7.753822326660156,7.469741821289062-12.965812683105469,8.376541137695312-2.606719970703125.48516845703125-5.270286560058594.28961181640625-7.906097412109375.330810546875H4"/>
        <path class="cls-7" d="M68,27.919921875H28.370185852050781c-2.635810852050781.04119873046875-5.29937744140625-.154365539550781-7.906097412109375.330810546875-5.211990356445312.90679931640625-9.985588073730469,4.005767822265625-12.965812683105469,8.376541137695312-3.027366638183594,4.346420288085938-4.154392242431641,9.933837890625-3.122779846191406,15.121322631835938.986419677734375,5.197555541992188,4.150230407714844,9.937576293945312,8.577537536621094,12.837799072265625,2.201736450195312,1.460739135742188,4.695838928222656,2.47747802734375,7.291488647460938,2.969207763671875,2.602264404296875.527313232421875,5.26849365234375.32318115234375,7.903549194335938.36431884765625h15.8519287109375c2.634552001953125.041091918945312,5.302558898925781-.16876220703125,7.90185546875.38665771484375,2.592658996582031.51141357421875,5.079818725585938,1.5467529296875,7.271659851074219,3.023757934570312,4.394393920898438,2.94842529296875,7.526702880859375,7.701751708984375,8.473335266113281,12.907302856445312.513275146484375,2.603744506835938.311996459960938,5.269088745117188.3531494140625,7.904388427734375v7.92596435546875c-.039558410644531,2.634414672851562.162445068359375,5.303085327148438-.410743713378906,7.899810791015625-.529678344726562,2.58990478515625-1.589492797851562,5.068313598632812-3.087532043457031,7.244766235351562-2.980224609375,4.370773315429688-7.753822326660156,7.469741821289062-12.965812683105469,8.376541137695312-2.606719970703125.48516845703125-5.270286560058594.28961181640625-7.906097412109375.330810546875H4"/>
      </g>
      <g>
        <circle class="cls-1" cx="4" cy="123.919921875" r="3.5"/>
        <path class="cls-4" d="M4,120.919921875c1.654209136962891,0,3,1.345794677734375,3,3s-1.345790863037109,3-3,3-3-1.345794677734375-3-3,1.345790863037109-3,3-3M4,119.919921875c-2.209140777587891,0-4,1.790863037109375-4,4s1.790859222412109,4,4,4,4-1.790863037109375,4-4-1.790859222412109-4-4-4h0Z"/>
      </g>
      <g>
        <circle class="cls-1" cx="67.999854554520425" cy="27.920015375665571" r="3.5"/>
        <path class="cls-4" d="M67.999999513016519,24.919923822931196c1.654212951660156,0,3.000007629394531,1.345794677734375,3.000007629394531,3s-1.345794677734375,3-3.000007629394531,3-3-1.345794677734375-3-3,1.345787048339844-3,3-3M67.999999513016519,23.919923822931196c-2.209129333496094,0-4,1.790863037109375-4,4s1.790870666503906,4,4,4c2.209144592285156,0,4.000007629394531-1.790863037109375,4.000007629394531-4s-1.790863037109375-4-4.000007629394531-4h0Z"/>
      </g>
    </g>
  </g>
  <g id="Overlay">
    <rect class="cls-2" x="63.999999999999531" y="87.919921878741008" width="16.000000000000014" height="7.99999999251979" rx="3.999995998114885" ry="3.999995998114885"/>
    <rect class="cls-2" x="136" y="43.919921878740105" width="16" height="7.99999999251979" rx="3.999995998114658" ry="3.999995998114658"/>
    <rect class="cls-2" x="208" y="99.919921878740098" width="16" height="7.999999992519804" rx="3.999995998114743" ry="3.999995998114743"/>
    <rect class="cls-2" x="280" y="43.919921878740105" width="16" height="7.99999999251979" rx="3.999995998114644" ry="3.999995998114644"/>
    <rect class="cls-2" x="352" y="87.919921875014836" width="16" height="7.999999999970328" rx="3.999995999977301" ry="3.999995999977301"/>
  </g>
</svg>