<?xml version="1.0" encoding="UTF-8"?>
<svg id="Layer_1" data-name="Layer 1" xmlns="http://www.w3.org/2000/svg" version="1.1" viewBox="0 0 400 127.9">
  <defs>
    <style>
      .cls-1 {
        fill: #000;
      }

      .cls-1, .cls-2 {
        stroke-width: 0px;
      }

      .cls-3, .cls-4, .cls-5 {
        stroke: #000;
      }

      .cls-3, .cls-4, .cls-5, .cls-6 {
        stroke-miterlimit: 10;
      }

      .cls-3, .cls-7, .cls-2 {
        fill: #fff;
      }

      .cls-4 {
        stroke-width: 8px;
      }

      .cls-4, .cls-5, .cls-6 {
        fill: none;
      }

      .cls-8, .cls-7 {
        isolation: isolate;
      }

      .cls-7 {
        font-family: OfficeCodePro-Regular, 'Office Code Pro';
        font-size: 24px;
      }

      .cls-6 {
        stroke: #fff;
        stroke-width: 6px;
      }
    </style>
  </defs>
  <g id="Underlay">
    <g>
      <path class="cls-2" d="M36,74.4c-2.5,0-4.5-2-4.5-4.5v-4c0-2.5,2-4.5,4.5-4.5s4.5,2,4.5,4.5v4c0,2.5-2,4.5-4.5,4.5Z"/>
      <path class="cls-1" d="M36,61.9c2.2,0,4,1.8,4,4v4c0,2.2-1.8,4-4,4s-4-1.8-4-4v-4c0-2.2,1.8-4,4-4M36,60.9c-2.8,0-5,2.2-5,5v4c0,2.8,2.2,5,5,5s5-2.2,5-5v-4c0-2.8-2.2-5-5-5h0Z"/>
    </g>
    <g>
      <path class="cls-2" d="M324,74.4c-2.5,0-4.5-2-4.5-4.5v-4c0-2.5,2-4.5,4.5-4.5s4.5,2,4.5,4.5v4c0,2.5-2,4.5-4.5,4.5Z"/>
      <path class="cls-1" d="M324,61.9c2.2,0,4,1.8,4,4v4c0,2.2-1.8,4-4,4s-4-1.8-4-4v-4c0-2.2,1.8-4,4-4M324,60.9c-2.8,0-5,2.2-5,5v4c0,2.8,2.2,5,5,5s5-2.2,5-5v-4c0-2.8-2.2-5-5-5h0Z"/>
    </g>
    <g>
      <path class="cls-2" d="M103.5,28.4v-2.5c0-2.5,2-4.5,4.5-4.5s4.5,2,4.5,4.5v2.5h-9Z"/>
      <path class="cls-1" d="M108,21.9c2.2,0,4,1.8,4,4v2h-8v-2c0-2.2,1.8-4,4-4h0M108,20.9c-2.8,0-5,2.2-5,5v3h10v-3c0-2.8-2.2-5-5-5h0Z"/>
    </g>
    <g>
      <path class="cls-2" d="M319.5,28.4v-2.5c0-2.5,2-4.5,4.5-4.5s4.5,2,4.5,4.5v2.5h-9Z"/>
      <path class="cls-1" d="M324,21.9c2.2,0,4,1.8,4,4v2h-8v-2c0-2.2,1.8-4,4-4M324,20.9c-2.8,0-5,2.2-5,5v3h10v-3c0-2.8-2.2-5-5-5h0Z"/>
    </g>
    <g>
      <path class="cls-2" d="M180,34.4c-2.5,0-4.5-2-4.5-4.5v-2.5h9v2.5c0,2.5-2,4.5-4.5,4.5Z"/>
      <path class="cls-1" d="M184,27.9v2c0,2.2-1.8,4-4,4h0c-2.2,0-4-1.8-4-4v-2h8M185,26.9h-10v3c0,2.8,2.2,5,5,5s5-2.2,5-5v-3h0Z"/>
    </g>
    <g>
      <path class="cls-2" d="M252,34.4c-2.5,0-4.5-2-4.5-4.5v-2.5h9v2.5c0,2.5-2,4.5-4.5,4.5Z"/>
      <path class="cls-1" d="M256,27.9v2c0,2.2-1.8,4-4,4h0c-2.2,0-4-1.8-4-4v-2h8M257,26.9h-10v3c0,2.8,2.2,5,5,5s5-2.2,5-5v-3h0Z"/>
    </g>
    <g>
      <path class="cls-2" d="M31.5,124.4v-2.5c0-2.5,2-4.5,4.5-4.5s4.5,2,4.5,4.5v2.5h-9Z"/>
      <path class="cls-1" d="M36,117.9c2.2,0,4,1.8,4,4v2h-8v-2c0-2.2,1.8-4,4-4h0M36,116.9c-2.8,0-5,2.2-5,5v3h10v-3c0-2.8-2.2-5-5-5h0Z"/>
    </g>
  </g>
  <g id="Letters">
    <g id="T">
      <g>
        <g>
          <path class="cls-4" d="M388,67.9h-13.7c-.5,0-.9,0-1.4,0-.4,0-.9-.1-1.3-.2-1.8-.4-3.4-1.4-4.7-2.6-1.3-1.3-2.2-2.9-2.6-4.7-.1-.4-.2-.9-.2-1.3,0-.5,0-.9,0-1.4v-13.7"/>
          <path class="cls-6" d="M388,67.9h-13.7c-.5,0-.9,0-1.4,0-.4,0-.9-.1-1.3-.2-1.8-.4-3.4-1.4-4.7-2.6-1.3-1.3-2.2-2.9-2.6-4.7-.1-.4-.2-.9-.2-1.3,0-.5,0-.9,0-1.4v-13.7"/>
        </g>
        <path class="cls-5" d="M377.1,71.4c-.2,0-.4-.1-.5-.3l-1.7-2.5c-.3-.4-.3-1,0-1.4l1.7-2.5c.1-.2.3-.3.5-.3"/>
        <path class="cls-5" d="M360.5,54.8c0-.2.1-.4.3-.5l2.5-1.7c.4-.3,1-.3,1.4,0l2.5,1.7c.2.1.3.3.3.5"/>
      </g>
      <g>
        <path class="cls-4" d="M364,27.9v74.6c0,1.2,0,2.5.2,3.7.1.6.2,1.2.3,1.8l.5,1.8c.7,2.4,1.9,4.6,3.5,6.5,3.1,3.9,7.7,6.5,12.7,7.2,2.5.4,5,.2,7.5.2h7.5"/>
        <path class="cls-6" d="M364,27.9v74.6c0,1.2,0,2.5.2,3.7.1.6.2,1.2.3,1.8l.5,1.8c.7,2.4,1.9,4.6,3.5,6.5,3.1,3.9,7.7,6.5,12.7,7.2,2.5.4,5,.2,7.5.2h7.5"/>
      </g>
      <g>
        <circle class="cls-2" cx="396" cy="123.9" r="3.5"/>
        <path class="cls-1" d="M396,120.9c1.7,0,3,1.3,3,3s-1.3,3-3,3-3-1.3-3-3,1.3-3,3-3M396,119.9c-2.2,0-4,1.8-4,4s1.8,4,4,4,4-1.8,4-4-1.8-4-4-4h0Z"/>
      </g>
      <g>
        <circle class="cls-2" cx="388" cy="67.9" r="3.5"/>
        <path class="cls-1" d="M388,64.9c1.7,0,3,1.3,3,3s-1.3,3-3,3-3-1.3-3-3,1.3-3,3-3M388,63.9c-2.2,0-4,1.8-4,4s1.8,4,4,4,4-1.8,4-4-1.8-4-4-4h0Z"/>
      </g>
      <g>
        <circle class="cls-2" cx="364" cy="27.9" r="3.5"/>
        <path class="cls-1" d="M364,24.9c1.7,0,3,1.3,3,3s-1.3,3-3,3-3-1.3-3-3,1.3-3,3-3M364,23.9c-2.2,0-4,1.8-4,4s1.8,4,4,4,4-1.8,4-4-1.8-4-4-4h0Z"/>
      </g>
      <g class="cls-8">
        <text class="cls-7" transform="translate(4 19.9)"><tspan x="0" y="0">Studio</tspan></text>
      </g>
    </g>
    <g id="R">
      <g>
        <path class="cls-4" d="M292,123.9v-27.8c0-1.9,0-3.7,0-5.6.3-3.7,1.6-7.3,3.8-10.3,1.1-1.5,2.5-2.8,3.8-4.1,1.3-1.3,2.6-2.7,4-3.8,2.9-2.3,6.4-3.8,10.1-4.3,1.8-.3,3.7-.1,5.5-.2h16.7"/>
        <path class="cls-6" d="M292,123.9v-27.8c0-1.9,0-3.7,0-5.6.3-3.7,1.6-7.3,3.8-10.3,1.1-1.5,2.5-2.8,3.8-4.1,1.3-1.3,2.6-2.7,4-3.8,2.9-2.3,6.4-3.8,10.1-4.3,1.8-.3,3.7-.1,5.5-.2h16.7"/>
      </g>
      <g>
        <path class="cls-4" d="M336,67.9c5.2,0,10.4,2.1,14.1,5.9,3.7,3.7,5.9,8.9,5.9,14.1"/>
        <path class="cls-6" d="M336,67.9c5.2,0,10.4,2.1,14.1,5.9,3.7,3.7,5.9,8.9,5.9,14.1"/>
      </g>
      <g>
        <g>
          <path class="cls-4" d="M356,67.9v-20.3c0-2.3-.5-4.5-1.2-6.6-.8-2.1-1.9-4.1-3.3-5.8-1.4-1.7-3.2-3.2-5.1-4.4-1.9-1.2-4-2-6.3-2.5-2.2-.5-4.5-.4-6.7-.4"/>
          <path class="cls-6" d="M356,67.9v-20.3c0-2.3-.5-4.5-1.2-6.6-.8-2.1-1.9-4.1-3.3-5.8-1.4-1.7-3.2-3.2-5.1-4.4-1.9-1.2-4-2-6.3-2.5-2.2-.5-4.5-.4-6.7-.4"/>
          <path class="cls-5" d="M351.5,42.2c0-.2,0-.4.1-.6.6-.9,1-1.8,1.5-2.8.2-.5.8-.8,1.2-.7,1,.3,2.2.6,3.2,1.1.2.1.4.3.5.6"/>
        </g>
        <g>
          <path class="cls-4" d="M333.3,27.9h-20.3c-2.2,0-4.5.1-6.7.8-4.3,1.3-8.2,4-10.8,7.7-2.6,3.7-3.9,8.3-3.5,12.8"/>
          <path class="cls-6" d="M333.3,27.9h-20.3c-2.2,0-4.5.1-6.7.8-4.3,1.3-8.2,4-10.8,7.7-2.6,3.7-3.9,8.3-3.5,12.8"/>
          <path class="cls-5" d="M307.4,32.1c-.2,0-.4,0-.6-.1-.8-.6-1.7-1.2-2.7-1.6-.4-.2-.7-.8-.6-1.3.3-1.1.8-2.1,1.3-3.2.1-.2.3-.4.6-.5"/>
        </g>
        <g>
          <path class="cls-4" d="M292.1,49.3c.2,2.2.7,4.5,1.5,6.5.9,2.1,2.1,4,3.7,5.6,1.5,1.7,3.3,3.1,5.3,4.1,2,1.1,4.2,1.8,6.4,2.1,2.2.4,4.5.2,6.7.3h20.3"/>
          <path class="cls-6" d="M292.1,49.3c.2,2.2.7,4.5,1.5,6.5.9,2.1,2.1,4,3.7,5.6,1.5,1.7,3.3,3.1,5.3,4.1,2,1.1,4.2,1.8,6.4,2.1,2.2.4,4.5.2,6.7.3h20.3"/>
          <path class="cls-5" d="M309.5,64.2c.2,0,.3.2.5.4.5.9,1.1,1.7,1.7,2.6.3.4.3,1,0,1.4-.7.8-1.6,1.6-2.5,2.3-.2.2-.5.2-.7.2"/>
        </g>
      </g>
      <g>
        <line class="cls-4" x1="356" y1="67.9" x2="356" y2="123.9"/>
        <line class="cls-6" x1="356" y1="67.9" x2="356" y2="123.9"/>
      </g>
      <g>
        <circle class="cls-2" cx="292" cy="123.9" r="3.5"/>
        <path class="cls-1" d="M292,120.9c1.7,0,3,1.3,3,3s-1.3,3-3,3-3-1.3-3-3,1.3-3,3-3M292,119.9c-2.2,0-4,1.8-4,4s1.8,4,4,4,4-1.8,4-4-1.8-4-4-4h0Z"/>
      </g>
      <g>
        <circle class="cls-2" cx="356" cy="123.9" r="3.5"/>
        <path class="cls-1" d="M356,120.9c1.7,0,3,1.3,3,3s-1.3,3-3,3-3-1.3-3-3,1.3-3,3-3M356,119.9c-2.2,0-4,1.8-4,4s1.8,4,4,4,4-1.8,4-4-1.8-4-4-4h0Z"/>
      </g>
    </g>
    <g id="O2">
      <g>
        <g>
          <path class="cls-4" d="M284,103.9v-55.8c0-.7,0-1.5-.1-2.2-.1-.7-.2-1.5-.4-2.2-.2-.7-.3-1.5-.6-2.1-1-2.8-2.5-5.4-4.6-7.6"/>
          <path class="cls-6" d="M284,103.9v-55.8c0-.7,0-1.5-.1-2.2-.1-.7-.2-1.5-.4-2.2-.2-.7-.3-1.5-.6-2.1-1-2.8-2.5-5.4-4.6-7.6"/>
          <path class="cls-5" d="M280.5,68.2c0-.3.1-.6.3-.8l2.5-2.8c.4-.4,1-.4,1.4,0l2.5,2.8c.2.2.3.5.3.8"/>
        </g>
        <g>
          <path class="cls-4" d="M278.3,34c-2.1-2.2-4.6-3.8-7.4-4.8-.4-.1-.7-.3-1.1-.4l-1.1-.3c-.7-.2-1.5-.3-2.2-.4-1.5-.2-3-.2-4.5-.2h-17.9c-3,0-6-.2-8.9.5-2.9.7-5.6,2-8,3.9-4.7,3.7-7.5,9.6-7.5,15.6"/>
          <path class="cls-6" d="M278.3,34c-2.1-2.2-4.6-3.8-7.4-4.8-.4-.1-.7-.3-1.1-.4l-1.1-.3c-.7-.2-1.5-.3-2.2-.4-1.5-.2-3-.2-4.5-.2h-17.9c-3,0-6-.2-8.9.5-2.9.7-5.6,2-8,3.9-4.7,3.7-7.5,9.6-7.5,15.6"/>
          <path class="cls-5" d="M244.3,31.4c-.3,0-.6-.1-.8-.3l-2.8-2.5c-.4-.4-.4-1,0-1.4l2.8-2.5c.2-.2.5-.3.8-.3"/>
        </g>
        <g>
          <path class="cls-4" d="M220,47.9v55.8c0,.7,0,1.5.1,2.2.1.7.2,1.5.4,2.2.2.7.3,1.5.6,2.1,1,2.8,2.5,5.4,4.6,7.6"/>
          <path class="cls-6" d="M220,47.9v55.8c0,.7,0,1.5.1,2.2.1.7.2,1.5.4,2.2.2.7.3,1.5.6,2.1,1,2.8,2.5,5.4,4.6,7.6"/>
          <path class="cls-5" d="M223.5,83.6c0,.3-.1.6-.3.8l-2.5,2.8c-.4.4-1,.4-1.4,0l-2.5-2.8c-.2-.2-.3-.5-.3-.8"/>
        </g>
        <g>
          <path class="cls-4" d="M225.7,117.8c2.1,2.2,4.6,3.8,7.4,4.8.4.1.7.3,1.1.4l1.1.3c.7.2,1.5.3,2.2.4,1.5.2,3,.2,4.5.2h17.9c3,0,6,.2,8.9-.5,2.9-.7,5.6-2,8-3.9,4.7-3.7,7.5-9.6,7.5-15.6"/>
          <path class="cls-6" d="M225.7,117.8c2.1,2.2,4.6,3.8,7.4,4.8.4.1.7.3,1.1.4l1.1.3c.7.2,1.5.3,2.2.4,1.5.2,3,.2,4.5.2h17.9c3,0,6,.2,8.9-.5,2.9-.7,5.6-2,8-3.9,4.7-3.7,7.5-9.6,7.5-15.6"/>
          <path class="cls-5" d="M259.7,120.4c.3,0,.6.1.8.3l2.8,2.5c.4.4.4,1,0,1.4l-2.8,2.5c-.2.2-.5.3-.8.3"/>
        </g>
      </g>
      <g>
        <circle class="cls-2" cx="252" cy="123.9" r="3.5"/>
        <path class="cls-1" d="M252,120.9c1.7,0,3,1.3,3,3s-1.3,3-3,3-3-1.3-3-3,1.3-3,3-3M252,119.9c-2.2,0-4,1.8-4,4s1.8,4,4,4,4-1.8,4-4-1.8-4-4-4h0Z"/>
      </g>
    </g>
    <g id="O1">
      <g>
        <g>
          <path class="cls-4" d="M148,103.9v-55.8c0-.7,0-1.5.1-2.2.1-.7.2-1.5.4-2.2.2-.7.3-1.5.6-2.1,1-2.8,2.5-5.4,4.6-7.6"/>
          <path class="cls-6" d="M148,103.9v-55.8c0-.7,0-1.5.1-2.2.1-.7.2-1.5.4-2.2.2-.7.3-1.5.6-2.1,1-2.8,2.5-5.4,4.6-7.6"/>
          <path class="cls-5" d="M144.5,68.2c0-.3.1-.6.3-.8l2.5-2.8c.4-.4,1-.4,1.4,0l2.5,2.8c.2.2.3.5.3.8"/>
        </g>
        <g>
          <path class="cls-4" d="M153.7,34c2.1-2.2,4.6-3.8,7.4-4.8.4-.1.7-.3,1.1-.4l1.1-.3c.7-.2,1.5-.3,2.2-.4,1.5-.2,3-.2,4.5-.2h17.9c3,0,6-.2,8.9.5,2.9.7,5.6,2,8,3.9,4.7,3.7,7.5,9.6,7.5,15.6"/>
          <path class="cls-6" d="M153.7,34c2.1-2.2,4.6-3.8,7.4-4.8.4-.1.7-.3,1.1-.4l1.1-.3c.7-.2,1.5-.3,2.2-.4,1.5-.2,3-.2,4.5-.2h17.9c3,0,6-.2,8.9.5,2.9.7,5.6,2,8,3.9,4.7,3.7,7.5,9.6,7.5,15.6"/>
          <path class="cls-5" d="M187.7,24.4c.3,0,.6.1.8.3l2.8,2.5c.4.4.4,1,0,1.4l-2.8,2.5c-.2.2-.5.3-.8.3"/>
        </g>
        <g>
          <path class="cls-4" d="M212,47.9v55.8c0,.7,0,1.5-.1,2.2-.1.7-.2,1.5-.4,2.2-.2.7-.3,1.5-.6,2.1-1,2.8-2.5,5.4-4.6,7.6"/>
          <path class="cls-6" d="M212,47.9v55.8c0,.7,0,1.5-.1,2.2-.1.7-.2,1.5-.4,2.2-.2.7-.3,1.5-.6,2.1-1,2.8-2.5,5.4-4.6,7.6"/>
          <path class="cls-5" d="M215.5,83.6c0,.3-.1.6-.3.8l-2.5,2.8c-.4.4-1,.4-1.4,0l-2.5-2.8c-.2-.2-.3-.5-.3-.8"/>
        </g>
        <g>
          <path class="cls-4" d="M206.3,117.8c-2.1,2.2-4.6,3.8-7.4,4.8-.4.1-.7.3-1.1.4l-1.1.3c-.7.2-1.5.3-2.2.4-1.5.2-3,.2-4.5.2h-17.9c-3,0-6,.2-8.9-.5-2.9-.7-5.6-2-8-3.9-4.7-3.7-7.5-9.6-7.5-15.6"/>
          <path class="cls-6" d="M206.3,117.8c-2.1,2.2-4.6,3.8-7.4,4.8-.4.1-.7.3-1.1.4l-1.1.3c-.7.2-1.5.3-2.2.4-1.5.2-3,.2-4.5.2h-17.9c-3,0-6,.2-8.9-.5-2.9-.7-5.6-2-8-3.9-4.7-3.7-7.5-9.6-7.5-15.6"/>
          <path class="cls-5" d="M172.3,127.4c-.3,0-.6-.1-.8-.3l-2.8-2.5c-.4-.4-.4-1,0-1.4l2.8-2.5c.2-.2.5-.3.8-.3"/>
        </g>
      </g>
      <g>
        <circle class="cls-2" cx="180" cy="123.9" r="3.5"/>
        <path class="cls-1" d="M180,120.9c1.7,0,3,1.3,3,3s-1.3,3-3,3-3-1.3-3-3,1.3-3,3-3M180,119.9c-2.2,0-4,1.8-4,4s1.8,4,4,4,4-1.8,4-4-1.8-4-4-4h0Z"/>
      </g>
    </g>
    <g id="P">
      <g>
        <g>
          <path class="cls-4" d="M96,67.9c-5.2,0-10.4,2.1-14.1,5.9-3.7,3.7-5.9,8.9-5.9,14.1"/>
          <path class="cls-6" d="M96,67.9c-5.2,0-10.4,2.1-14.1,5.9-3.7,3.7-5.9,8.9-5.9,14.1"/>
        </g>
        <path class="cls-5" d="M89.7,72.7c-.1,0-.2,0-.4-.2-.6-.6-1.3-1.2-2.1-1.8-.3-.3-.6-.8-.6-1.3,0-.9,0-1.9.1-2.8,0-.2.1-.4.3-.4"/>
        <path class="cls-5" d="M80.8,81.6c0,.1-.2.2-.4.2-.9,0-1.8,0-2.7.2-.4,0-1-.1-1.3-.4-.6-.7-1.3-1.4-1.9-2.1-.1-.2-.2-.3-.1-.5"/>
      </g>
      <g>
        <g>
          <path class="cls-4" d="M76,67.9v-20.3c0-2.3.5-4.5,1.2-6.6.8-2.1,1.9-4.1,3.3-5.8,1.4-1.7,3.2-3.2,5.1-4.4,1.9-1.2,4-2,6.3-2.5,2.2-.5,4.5-.4,6.7-.4"/>
          <path class="cls-6" d="M76,67.9v-20.3c0-2.3.5-4.5,1.2-6.6.8-2.1,1.9-4.1,3.3-5.8,1.4-1.7,3.2-3.2,5.1-4.4,1.9-1.2,4-2,6.3-2.5,2.2-.5,4.5-.4,6.7-.4"/>
          <path class="cls-5" d="M74,39.8c0-.2.3-.4.5-.6,1.1-.5,2.2-.8,3.2-1.1.5-.1,1,.2,1.2.7.5,1,.9,1.9,1.5,2.8.1.2.2.4.1.6"/>
        </g>
        <g>
          <path class="cls-4" d="M98.7,27.9h20.3c2.2,0,4.5.1,6.7.8,4.3,1.3,8.2,4,10.8,7.7,2.6,3.7,3.9,8.3,3.5,12.8"/>
          <path class="cls-6" d="M98.7,27.9h20.3c2.2,0,4.5.1,6.7.8,4.3,1.3,8.2,4,10.8,7.7,2.6,3.7,3.9,8.3,3.5,12.8"/>
          <path class="cls-5" d="M126.6,25.4c.3,0,.5.2.6.5.5,1.1,1,2.1,1.3,3.2.1.5-.1,1.1-.6,1.3-.9.5-1.9,1.1-2.7,1.6-.2.1-.4.2-.6.1"/>
        </g>
        <g>
          <path class="cls-4" d="M139.9,49.3c-.2,2.2-.7,4.5-1.5,6.5-.9,2.1-2.1,4-3.7,5.6-1.5,1.7-3.3,3.1-5.3,4.1-2,1.1-4.2,1.8-6.4,2.1-2.2.4-4.5.2-6.7.3h-20.3"/>
          <path class="cls-6" d="M139.9,49.3c-.2,2.2-.7,4.5-1.5,6.5-.9,2.1-2.1,4-3.7,5.6-1.5,1.7-3.3,3.1-5.3,4.1-2,1.1-4.2,1.8-6.4,2.1-2.2.4-4.5.2-6.7.3h-20.3"/>
          <path class="cls-5" d="M123.5,71.1c-.3,0-.5,0-.7-.2-.9-.7-1.7-1.6-2.5-2.3-.3-.4-.3-1,0-1.4.7-.9,1.2-1.7,1.7-2.6.1-.2.3-.3.5-.4"/>
        </g>
      </g>
      <g>
        <line class="cls-4" x1="76" y1="123.9" x2="76" y2="67.9"/>
        <line class="cls-6" x1="76" y1="123.9" x2="76" y2="67.9"/>
      </g>
      <g>
        <circle class="cls-2" cx="76" cy="123.9" r="3.5"/>
        <path class="cls-1" d="M76,120.9c1.7,0,3,1.3,3,3s-1.3,3-3,3-3-1.3-3-3,1.3-3,3-3M76,119.9c-2.2,0-4,1.8-4,4s1.8,4,4,4,4-1.8,4-4-1.8-4-4-4h0Z"/>
      </g>
    </g>
    <g id="S">
      <g>
        <path class="cls-4" d="M68,27.9H28.4c-2.6,0-5.3-.2-7.9.3-5.2.9-10,4-13,8.4-3,4.3-4.2,9.9-3.1,15.1,1,5.2,4.2,9.9,8.6,12.8,2.2,1.5,4.7,2.5,7.3,3,2.6.5,5.3.3,7.9.4h15.9c2.6,0,5.3-.2,7.9.4,2.6.5,5.1,1.5,7.3,3,4.4,2.9,7.5,7.7,8.5,12.9.5,2.6.3,5.3.4,7.9v7.9c0,2.6.2,5.3-.4,7.9-.5,2.6-1.6,5.1-3.1,7.2-3,4.4-7.8,7.5-13,8.4-2.6.5-5.3.3-7.9.3H4"/>
        <path class="cls-6" d="M68,27.9H28.4c-2.6,0-5.3-.2-7.9.3-5.2.9-10,4-13,8.4-3,4.3-4.2,9.9-3.1,15.1,1,5.2,4.2,9.9,8.6,12.8,2.2,1.5,4.7,2.5,7.3,3,2.6.5,5.3.3,7.9.4h15.9c2.6,0,5.3-.2,7.9.4,2.6.5,5.1,1.5,7.3,3,4.4,2.9,7.5,7.7,8.5,12.9.5,2.6.3,5.3.4,7.9v7.9c0,2.6.2,5.3-.4,7.9-.5,2.6-1.6,5.1-3.1,7.2-3,4.4-7.8,7.5-13,8.4-2.6.5-5.3.3-7.9.3H4"/>
      </g>
      <g>
        <circle class="cls-2" cx="4" cy="123.9" r="3.5"/>
        <path class="cls-1" d="M4,120.9c1.7,0,3,1.3,3,3s-1.3,3-3,3-3-1.3-3-3,1.3-3,3-3M4,119.9c-2.2,0-4,1.8-4,4s1.8,4,4,4,4-1.8,4-4-1.8-4-4-4h0Z"/>
      </g>
      <g>
        <circle class="cls-2" cx="68" cy="27.9" r="3.5"/>
        <path class="cls-1" d="M68,24.9c1.7,0,3,1.3,3,3s-1.3,3-3,3-3-1.3-3-3,1.3-3,3-3M68,23.9c-2.2,0-4,1.8-4,4s1.8,4,4,4,4-1.8,4-4-1.8-4-4-4h0Z"/>
      </g>
    </g>
  </g>
  <g id="Overlay">
    <rect class="cls-3" x="64" y="87.9" width="16" height="8" rx="4" ry="4"/>
    <rect class="cls-3" x="136" y="43.9" width="16" height="8" rx="4" ry="4"/>
    <rect class="cls-3" x="208" y="99.9" width="16" height="8" rx="4" ry="4"/>
    <rect class="cls-3" x="280" y="43.9" width="16" height="8" rx="4" ry="4"/>
    <rect class="cls-3" x="352" y="87.9" width="16" height="8" rx="4" ry="4"/>
  </g>
</svg>